<?xml version="1.0" encoding="utf-8"?>
<!-- Generator: Adobe Illustrator 16.0.0, SVG Export Plug-In . SVG Version: 6.00 Build 0)  -->
<!DOCTYPE svg PUBLIC "-//W3C//DTD SVG 1.1//EN" "http://www.w3.org/Graphics/SVG/1.1/DTD/svg11.dtd">
<svg version="1.1" id="Layer_1" xmlns="http://www.w3.org/2000/svg" xmlns:xlink="http://www.w3.org/1999/xlink" x="0px" y="0px"
	 width="100px" height="100px" viewBox="0 0 100 100" enable-background="new 0 0 100 100" xml:space="preserve">
<path id="패스_734" fill="#FFFFFF" d="M43.295,56.878c0.497,0,0.9-0.402,0.9-0.898l0,0V17.287c0-0.497-0.403-0.9-0.9-0.9l0,0
	h-7.649c-0.497,0-0.9,0.403-0.9,0.9l0,0v38.693c0,0.496,0.403,0.898,0.9,0.898l0,0H43.295z M36.546,18.186h5.849v36.893h-5.849
	V18.186z"/>
<path id="패스_735" fill="#FFFFFF" d="M49.141,23.584h13.048c0.497,0,0.9-0.403,0.9-0.9l0,0v-5.4c0-0.497-0.403-0.9-0.9-0.9l0,0
	H49.141c-0.497,0-0.9,0.403-0.9,0.9l0,0v5.4C48.241,23.182,48.644,23.584,49.141,23.584L49.141,23.584z M50.041,18.185h11.249v3.6
	H50.041V18.185z"/>
<path id="패스_736" fill="#FFFFFF" d="M48.241,33.482c0,0.496,0.403,0.899,0.9,0.899l0,0h13.048c0.497,0,0.9-0.403,0.9-0.899l0,0
	v-5.4c0-0.497-0.403-0.9-0.9-0.9l0,0H49.141c-0.497,0-0.9,0.403-0.9,0.9l0,0V33.482z M50.041,28.982h11.249v3.6H50.041V28.982z"/>
<path id="패스_737" fill="#FFFFFF" d="M48.241,44.279c0,0.498,0.403,0.9,0.9,0.9l0,0h13.048c0.497,0,0.9-0.402,0.9-0.9l0,0V38.88
	c0-0.497-0.403-0.899-0.9-0.899l0,0H49.141c-0.497,0-0.9,0.402-0.9,0.899l0,0V44.279z M50.041,39.78h11.249v3.601H50.041V39.78z"/>
<path id="패스_738" fill="#FFFFFF" d="M48.241,55.078c0,0.497,0.403,0.899,0.9,0.899l0,0h13.048c0.497,0,0.9-0.402,0.9-0.899l0,0
	v-5.399c0-0.498-0.403-0.901-0.9-0.901l0,0H49.141c-0.497,0-0.9,0.403-0.9,0.901l0,0V55.078z M50.041,50.579h11.249v3.6H50.041
	V50.579z"/>
<path id="패스_739" fill="#FFFFFF" d="M77.041,15.485h-6.4c-0.521-3.112-3.211-5.395-6.367-5.4H33.557
	c-3.567,0.004-6.458,2.896-6.462,6.463v39.878c0,0.497,0.403,0.9,0.9,0.9l0,0c0.497,0,0.9-0.403,0.9-0.9l0,0V16.548
	c0.003-2.574,2.089-4.66,4.663-4.663h30.717c2.574,0.003,4.66,2.089,4.663,4.663v39.878c0,0.497,0.403,0.9,0.9,0.9l0,0
	c0.496,0,0.9-0.403,0.9-0.9l0,0V39.782h6.299c0.498,0,0.899-0.403,0.899-0.9l0,0v-22.5C77.936,15.888,77.535,15.486,77.041,15.485z
	 M76.141,37.984h-5.4V17.286h5.4V37.984z"/>
<path id="패스_740" fill="#FFFFFF" d="M77.041,60.927H27.999c-0.497,0-0.9,0.403-0.9,0.9l0,0c0,0.497,0.403,0.898,0.9,0.898l0,0
	h49.042c0.496,0,0.898-0.401,0.898-0.898l0,0C77.94,61.33,77.537,60.927,77.041,60.927L77.041,60.927z"/>
<text transform="matrix(1 0 0 1 40.0977 83.3008)" fill="#FFFFFF" font-family="'GyeonggiTitleV'" font-size="12">호텔</text>
</svg>
