<?xml version="1.0" encoding="utf-8"?>
<!-- Generator: Adobe Illustrator 16.0.0, SVG Export Plug-In . SVG Version: 6.00 Build 0)  -->
<!DOCTYPE svg PUBLIC "-//W3C//DTD SVG 1.1//EN" "http://www.w3.org/Graphics/SVG/1.1/DTD/svg11.dtd">
<svg version="1.1" id="Layer_1" xmlns="http://www.w3.org/2000/svg" xmlns:xlink="http://www.w3.org/1999/xlink" x="0px" y="0px"
	 width="100px" height="100px" viewBox="-20 0 100 100" enable-background="new -20 0 100 100" xml:space="preserve">
<g id="그룹_4954" transform="translate(-70.341 1570.356)">
	<g id="패스_732">
		<path fill="#FFFFFF" stroke="#FFFFFF" stroke-miterlimit="10" d="M125.349-1553.73c-2.853-2.91-6.758-4.547-10.833-4.539
			c-4.069-0.008-7.97,1.624-10.819,4.527l-3.11,3.028l-3.1-3.016c-2.853-2.91-6.758-4.546-10.833-4.539
			c-4.075-0.007-7.98,1.629-10.833,4.539c-3.306,3.342-4.919,8.003-4.386,12.674c0.053,0.495,0.496,0.853,0.99,0.801
			c0.001,0,0.002,0,0.003,0c0.494-0.052,0.853-0.496,0.801-0.99c0-0.001,0-0.002,0-0.003c-0.473-4.131,0.954-8.254,3.878-11.211
			c2.516-2.565,5.959-4.007,9.552-4c3.599-0.005,7.048,1.443,9.564,4.016l3.737,3.639c0.35,0.341,0.906,0.341,1.256,0l3.75-3.651
			c2.516-2.565,5.96-4.007,9.552-4c3.594-0.007,7.037,1.435,9.553,4c5.275,5.375,5.275,13.985,0,19.36l-23.482,23.759
			l-19.745-19.978c-0.35-0.354-0.919-0.356-1.272-0.007h0c-0.353,0.35-0.357,0.918-0.008,1.271l20.386,20.625
			c0.169,0.172,0.399,0.268,0.64,0.269c0.241-0.001,0.471-0.097,0.641-0.269l24.123-24.406
			C131.32-1537.91,131.32-1547.652,125.349-1553.73z"/>
	</g>
	<g id="패스_733">
		<path fill="#FFFFFF" stroke="#FFFFFF" stroke-miterlimit="10" d="M85.972-1535.375l1.787-2.085l4.811,10.424
			c0.149,0.336,0.49,0.544,0.856,0.522c0.365-0.016,0.684-0.249,0.808-0.593l4.948-13.701l5.5,17.271
			c0.105,0.331,0.392,0.572,0.736,0.619c0.04,0.006,0.08,0.008,0.12,0.008c0.305,0,0.589-0.153,0.755-0.408l6.749-10.349
			c0.271-0.416,0.154-0.974-0.262-1.245c-0.416-0.271-0.974-0.153-1.246,0.263l-5.713,8.76l-5.724-17.989
			c-0.117-0.368-0.455-0.62-0.84-0.627c-0.386-0.008-0.733,0.231-0.864,0.594l-5.1,14.136l-4.48-9.707
			c-0.128-0.279-0.39-0.474-0.694-0.516s-0.608,0.073-0.807,0.307l-2.43,2.835h-9.034c-0.497,0-0.9,0.402-0.9,0.899l0,0
			c0,0.497,0.403,0.9,0.9,0.9l0,0h9.448C85.557-1535.061,85.803-1535.176,85.972-1535.375z"/>
	</g>
</g>
<g>
	<path fill="#FFFFFF" stroke="#FFFFFF" d="M26.449,84.297v-1.932c-0.36,0.215-0.796,0.375-1.308,0.479
		C24.628,82.949,23.944,83,23.088,83h-4.008v-1.32h3.972c0.752,0,1.42-0.063,2.004-0.191c0.583-0.127,1.048-0.32,1.392-0.576v-6.301
		h1.74v9.686H26.449z M24.654,79.688c-0.564,0.496-1.302,0.744-2.214,0.744c-0.92,0-1.662-0.248-2.226-0.744
		s-0.846-1.211-0.846-2.146c0-0.92,0.284-1.631,0.852-2.131c0.568-0.5,1.308-0.75,2.22-0.75s1.65,0.25,2.214,0.75
		s0.846,1.211,0.846,2.131C25.5,78.477,25.218,79.191,24.654,79.688z M23.424,76.43c-0.256-0.275-0.584-0.414-0.984-0.414
		c-0.408,0-0.74,0.139-0.996,0.414c-0.256,0.277-0.384,0.646-0.384,1.111c0,0.479,0.128,0.854,0.384,1.121s0.588,0.402,0.996,0.402
		c0.4,0,0.728-0.135,0.984-0.402c0.256-0.268,0.384-0.643,0.384-1.121C23.809,77.076,23.681,76.707,23.424,76.43z"/>
	<path fill="#FFFFFF" stroke="#FFFFFF" d="M34.104,78.969c0,0.135,0.024,0.24,0.071,0.313c0.049,0.07,0.169,0.107,0.361,0.107h1.344
		c0.527,0,1.113-0.031,1.758-0.09c0.644-0.061,1.266-0.158,1.865-0.295l0.265,1.225c-0.208,0.072-0.431,0.137-0.666,0.191
		c-0.236,0.057-0.481,0.104-0.738,0.145v1.344h2.437v1.332h-9.6v-1.332h2.231V80.66c-0.353-0.072-0.618-0.213-0.798-0.426
		s-0.271-0.533-0.271-0.967v-2.172h5.257v-0.887h-5.257v-1.357h6.996v3.205c-0.328,0.145-0.649,0.246-0.966,0.305
		c-0.316,0.061-0.646,0.092-0.99,0.092h-3.3V78.969z M35.112,80.721v1.188h1.572v-1.199c-0.152,0.008-0.302,0.012-0.45,0.012
		s-0.294,0-0.438,0H35.112z"/>
</g>
</svg>
