<?xml version="1.0" encoding="utf-8"?>
<!-- Generator: Adobe Illustrator 16.0.0, SVG Export Plug-In . SVG Version: 6.00 Build 0)  -->
<!DOCTYPE svg PUBLIC "-//W3C//DTD SVG 1.1//EN" "http://www.w3.org/Graphics/SVG/1.1/DTD/svg11.dtd">
<svg version="1.1" id="Layer_1" xmlns="http://www.w3.org/2000/svg" xmlns:xlink="http://www.w3.org/1999/xlink" x="0px" y="0px"
	 width="100px" height="100px" viewBox="-20 0 100 100" enable-background="new -20 0 100 100" xml:space="preserve">
<g id="Group_5402" transform="translate(558.47 59.5)">
	<g id="Group_5401" transform="translate(318 992.5)">
		<g id="Rectangle_2474">
			<path fill="#FFFFFF" d="M-821.941-1006.068H-871c-0.552,0-1-0.447-1-1v-34.345c0-0.552,0.448-1,1-1h49.06c0.553,0,1,0.448,1,1
				v34.345C-820.941-1006.516-821.388-1006.068-821.941-1006.068z M-870-1008.068h47.06v-32.345H-870V-1008.068z"/>
		</g>
		<g id="Rectangle_2475">
			<path fill="#FFFFFF" d="M-826.941-1011.068H-866c-0.552,0-1-0.447-1-1v-24.345c0-0.552,0.448-1,1-1h39.06c0.553,0,1,0.448,1,1
				v24.345C-825.941-1011.516-826.388-1011.068-826.941-1011.068z M-865-1013.068h37.06v-22.345H-865V-1013.068z"/>
		</g>
		<g id="Group_5400" transform="translate(6.863)">
			<g id="Path_2467">
				<path fill="#FFFFFF" stroke="#FFFFFF" stroke-width="2" stroke-linecap="round" stroke-linejoin="round" d="M-871-1041.914"/>
			</g>
			<g id="Path_2468">
				<path fill="#FFFFFF" stroke="#FFFFFF" stroke-width="2" stroke-linecap="round" stroke-linejoin="round" d="M-835.666-1041.914"
					/>
			</g>
		</g>
		<g id="Rectangle_2476">
			<path fill="#FFFFFF" d="M-848.459-1011.068h-10c-2.757,0-5-2.243-5-5v-4c0-2.757,2.243-5,5-5h10c2.757,0,5,2.243,5,5v4
				C-843.459-1013.312-845.702-1011.068-848.459-1011.068z M-858.459-1023.069c-1.654,0-3,1.346-3,3v4c0,1.654,1.346,3,3,3h10
				c1.654,0,3-1.346,3-3v-4c0-1.655-1.346-3-3-3H-858.459z"/>
		</g>
		<g id="Line_467">
			<path fill="#FFFFFF" d="M-856.621-1011.068c-0.552,0-1-0.447-1-1v-12c0-0.552,0.448-1,1-1s1,0.448,1,1v12
				C-855.621-1011.516-856.069-1011.068-856.621-1011.068z"/>
		</g>
		<g id="Line_468">
			<path fill="#FFFFFF" d="M-851.546-1011.068c-0.552,0-1-0.447-1-1v-12c0-0.552,0.448-1,1-1s1,0.448,1,1v12
				C-850.546-1011.516-850.994-1011.068-851.546-1011.068z"/>
		</g>
	</g>
	<g id="Line_469">
		<path fill="#FFFFFF" d="M-545.31,4.56c-0.168,0-0.339-0.042-0.496-0.132c-0.479-0.274-0.646-0.885-0.372-1.364l10.365-18.128
			c0.274-0.48,0.885-0.646,1.365-0.372c0.479,0.274,0.646,0.885,0.372,1.364l-10.365,18.128
			C-544.625,4.379-544.963,4.56-545.31,4.56z"/>
	</g>
	<g id="Line_470">
		<path fill="#FFFFFF" d="M-511.44,4.56c-0.347,0-0.685-0.181-0.869-0.504l-10.365-18.128c-0.274-0.479-0.107-1.09,0.372-1.364
			s1.091-0.107,1.364,0.372l10.365,18.128c0.274,0.479,0.107,1.09-0.372,1.364C-511.101,4.518-511.272,4.56-511.44,4.56z"/>
	</g>
</g>
<g>
	<path fill="#FFFFFF" d="M25.772,76.521h-0.768c0.12,0.185,0.214,0.385,0.282,0.601s0.102,0.443,0.102,0.684
		c0,0.384-0.074,0.729-0.222,1.032s-0.346,0.561-0.594,0.768c-0.248,0.209-0.536,0.368-0.864,0.48s-0.668,0.168-1.02,0.168
		c-0.376,0-0.729-0.054-1.056-0.162c-0.328-0.107-0.616-0.27-0.864-0.486c-0.24-0.207-0.432-0.464-0.576-0.768
		s-0.216-0.648-0.216-1.032c0-0.24,0.032-0.468,0.096-0.684s0.156-0.416,0.276-0.601h-0.756v-1.224h2.268
		c0.024-0.063,0.042-0.134,0.054-0.21c0.012-0.076,0.018-0.154,0.018-0.234c0-0.119-0.016-0.235-0.048-0.348
		c-0.032-0.112-0.064-0.228-0.096-0.348l1.668-0.456c0.048,0.144,0.086,0.286,0.114,0.426c0.028,0.14,0.042,0.282,0.042,0.426
		c0,0.137-0.016,0.267-0.048,0.391c-0.032,0.124-0.072,0.241-0.12,0.354h2.328V76.521z M28.28,74.445v2.472h1.488v1.355H28.28v1.261
		c0,0.359-0.074,0.662-0.222,0.905c-0.148,0.244-0.33,0.431-0.546,0.559c0.216,0.023,0.388,0.114,0.516,0.27
		c0.128,0.156,0.192,0.343,0.192,0.559c0,0.023,0,0.042,0,0.054s0,0.022,0,0.03l-0.144,3.107h-1.632v-2.34
		c0-0.111-0.028-0.198-0.084-0.258c-0.056-0.06-0.14-0.09-0.252-0.09H20.9v-1.344H26c0.192-0.128,0.33-0.311,0.414-0.547
		c0.084-0.235,0.126-0.497,0.126-0.785v-5.208H28.28z M23.48,77.019c-0.192-0.22-0.456-0.33-0.792-0.33
		c-0.336,0-0.603,0.11-0.798,0.33c-0.196,0.221-0.294,0.482-0.294,0.786c0,0.32,0.098,0.588,0.294,0.805
		c0.196,0.216,0.462,0.323,0.798,0.323c0.336,0,0.6-0.107,0.792-0.323c0.192-0.217,0.288-0.484,0.288-0.805
		C23.768,77.501,23.672,77.239,23.48,77.019z"/>
	<path fill="#FFFFFF" d="M31.508,78.825h3.048c0.24,0,0.517-0.006,0.828-0.019c0.312-0.012,0.632-0.037,0.96-0.078
		c0.328-0.039,0.658-0.096,0.99-0.168c0.332-0.071,0.642-0.168,0.93-0.288l0.229,1.188c-0.433,0.208-0.935,0.353-1.506,0.432
		c-0.572,0.08-1.127,0.128-1.662,0.145v1.319h-1.74v-1.319h-2.076V78.825z M36.752,77.793c-0.488,0.376-1.168,0.563-2.04,0.563
		c-0.896,0-1.584-0.189-2.063-0.569c-0.48-0.38-0.721-0.882-0.721-1.506c0-0.616,0.24-1.116,0.721-1.5
		c0.479-0.385,1.168-0.576,2.063-0.576c0.872,0,1.552,0.191,2.04,0.576c0.488,0.384,0.732,0.884,0.732,1.5
		C37.484,76.913,37.24,77.417,36.752,77.793z M34.748,81.753v1.488c0,0.12,0.021,0.204,0.066,0.252
		c0.043,0.048,0.129,0.071,0.258,0.071h2.903c0.464,0,0.91-0.04,1.339-0.119c0.428-0.08,0.846-0.185,1.254-0.313l0.359,1.224
		c-0.416,0.145-0.838,0.271-1.266,0.379c-0.428,0.107-0.95,0.161-1.566,0.161h-3.744c-0.439,0-0.777-0.104-1.014-0.312
		s-0.354-0.496-0.354-0.864v-1.968H34.748z M35.521,75.657c-0.195-0.152-0.466-0.229-0.81-0.229c-0.353,0-0.626,0.076-0.822,0.229
		c-0.196,0.151-0.294,0.359-0.294,0.624c0,0.264,0.098,0.472,0.294,0.624c0.196,0.151,0.47,0.228,0.822,0.228
		c0.344,0,0.614-0.076,0.81-0.228c0.196-0.152,0.295-0.36,0.295-0.624C35.816,76.017,35.718,75.809,35.521,75.657z M40.508,82.245
		h-1.716v-0.816h-1.86v-1.176h1.86v-5.808h1.716V82.245z"/>
</g>
</svg>
