<?xml version="1.0" encoding="utf-8"?>
<!-- Generator: Adobe Illustrator 16.0.0, SVG Export Plug-In . SVG Version: 6.00 Build 0)  -->
<!DOCTYPE svg PUBLIC "-//W3C//DTD SVG 1.1//EN" "http://www.w3.org/Graphics/SVG/1.1/DTD/svg11.dtd">
<svg version="1.1" id="Layer_1" xmlns="http://www.w3.org/2000/svg" xmlns:xlink="http://www.w3.org/1999/xlink" x="0px" y="0px"
	 width="100px" height="100px" viewBox="-20 0 100 100" enable-background="new -20 0 100 100" xml:space="preserve">
<g id="그룹_4952" transform="translate(191.02 1569.299)">
	<g id="패스_722">
		<path fill="#FFFFFF" d="M-136.979-1546.524v37.158c-0.001,1.293-1.049,2.34-2.341,2.342h-42.558
			c-1.293-0.002-2.341-1.049-2.342-2.342v-37.158h-1.8v37.158c0.003,2.285,1.855,4.139,4.142,4.141h42.558
			c2.286-0.002,4.139-1.855,4.141-4.141v-37.158H-136.979z"/>
	</g>
	<g id="패스_723">
		<path fill="#FFFFFF" d="M-181.141-1511.938c0.152,0.107,0.334,0.166,0.52,0.166c0.102,0,0.204-0.018,0.3-0.051
			c0.081-0.029,8.219-2.801,19.505,0.023c0.017,0,0.033,0,0.05,0.006c0.018,0.006,0.063,0.01,0.094,0.014
			c0.038,0.002,0.076,0.002,0.113,0c0.032,0,0.063-0.006,0.094-0.01c0.037-0.006,0.076-0.014,0.113-0.025
			c0.018-0.004,0.034-0.006,0.051-0.012c0.082-0.027,8.256-2.789,19.508,0.025c0.07,0.018,0.145,0.025,0.218,0.025
			c0.2,0,0.396-0.066,0.554-0.189c0.219-0.172,0.346-0.434,0.346-0.709v-37.254c0-0.366-0.221-0.695-0.56-0.833
			c-1.138-0.463-2.303-0.854-3.489-1.171v-7.381c0-0.323-0.172-0.621-0.451-0.781c-0.279-0.161-0.622-0.161-0.9,0l-15.659,9.145
			c-11.282-4.375-19.931,0.029-20.3,0.222c-0.297,0.156-0.483,0.464-0.482,0.8v37.253
			C-181.519-1512.381-181.378-1512.108-181.141-1511.938z M-144.112-1523.483c0.241-0.168,0.385-0.443,0.385-0.736v-25.835
			c0.753,0.216,1.506,0.457,2.249,0.741v35.499c-5.13-1.184-10.437-1.385-15.642-0.588L-144.112-1523.483z M-159.474-1549.6
			l13.947-8.146v33.056l-13.947,9.74V-1549.6z M-179.721-1549.349c5.859-2.3,12.373-2.288,18.223,0.035v35.499
			c-3.124-0.703-6.314-1.061-9.516-1.066c-2.933-0.023-5.857,0.314-8.707,1.008V-1549.349z"/>
	</g>
</g>
<g>
	<path fill="#FFFFFF" d="M25.005,76.521h-0.768c0.12,0.185,0.214,0.385,0.282,0.601s0.102,0.443,0.102,0.684
		c0,0.384-0.074,0.729-0.222,1.032s-0.346,0.561-0.594,0.768c-0.248,0.209-0.536,0.368-0.864,0.48s-0.668,0.168-1.02,0.168
		c-0.376,0-0.729-0.054-1.056-0.162c-0.328-0.107-0.616-0.27-0.864-0.486c-0.24-0.207-0.432-0.464-0.576-0.768
		s-0.216-0.648-0.216-1.032c0-0.24,0.032-0.468,0.096-0.684s0.156-0.416,0.276-0.601h-0.756v-1.224h2.268
		c0.024-0.063,0.042-0.134,0.054-0.21c0.012-0.076,0.018-0.154,0.018-0.234c0-0.119-0.016-0.235-0.048-0.348
		c-0.032-0.112-0.064-0.228-0.096-0.348l1.668-0.456c0.048,0.144,0.086,0.286,0.114,0.426c0.028,0.14,0.042,0.282,0.042,0.426
		c0,0.137-0.016,0.267-0.048,0.391c-0.032,0.124-0.072,0.241-0.12,0.354h2.328V76.521z M27.513,74.445v2.472h1.488v1.355h-1.488
		v1.261c0,0.359-0.074,0.662-0.222,0.905c-0.148,0.244-0.33,0.431-0.546,0.559c0.216,0.023,0.388,0.114,0.516,0.27
		c0.128,0.156,0.192,0.343,0.192,0.559c0,0.023,0,0.042,0,0.054s0,0.022,0,0.03l-0.144,3.107h-1.632v-2.34
		c0-0.111-0.028-0.198-0.084-0.258c-0.056-0.06-0.14-0.09-0.252-0.09h-5.208v-1.344h5.1c0.192-0.128,0.33-0.311,0.414-0.547
		c0.084-0.235,0.126-0.497,0.126-0.785v-5.208H27.513z M22.713,77.019c-0.192-0.22-0.456-0.33-0.792-0.33
		c-0.336,0-0.603,0.11-0.798,0.33c-0.196,0.221-0.294,0.482-0.294,0.786c0,0.32,0.098,0.588,0.294,0.805
		c0.196,0.216,0.462,0.323,0.798,0.323c0.336,0,0.6-0.107,0.792-0.323c0.192-0.217,0.288-0.484,0.288-0.805
		C23.001,77.501,22.905,77.239,22.713,77.019z"/>
	<path fill="#FFFFFF" d="M32.564,81.873v-3.024h1.692v3.024h0.889v-3.024h1.691v3.024h3.54v1.344h-9.611v-1.344H32.564z
		 M37.161,80.817c0.048-0.337,0.094-0.666,0.138-0.99s0.086-0.654,0.126-0.99c0.032-0.328,0.061-0.668,0.084-1.02
		c0.024-0.353,0.036-0.729,0.036-1.129c0-0.144-0.036-0.252-0.107-0.323c-0.072-0.072-0.168-0.108-0.288-0.108h-5.257v-1.332h6.301
		c0.359,0,0.632,0.09,0.815,0.271c0.185,0.18,0.276,0.438,0.276,0.773s-0.017,0.72-0.048,1.152c-0.032,0.432-0.072,0.876-0.12,1.332
		s-0.106,0.906-0.174,1.35c-0.068,0.444-0.139,0.847-0.21,1.206L37.161,80.817z"/>
</g>
</svg>
