<?xml version="1.0" encoding="utf-8"?>
<!-- Generator: Adobe Illustrator 16.0.0, SVG Export Plug-In . SVG Version: 6.00 Build 0)  -->
<!DOCTYPE svg PUBLIC "-//W3C//DTD SVG 1.1//EN" "http://www.w3.org/Graphics/SVG/1.1/DTD/svg11.dtd">
<svg version="1.1" id="Layer_1" xmlns="http://www.w3.org/2000/svg" xmlns:xlink="http://www.w3.org/1999/xlink" x="0px" y="0px"
	 width="100px" height="100px" viewBox="-20 0 100 100" enable-background="new -20 0 100 100" xml:space="preserve">
<g id="패스_741">
	<path fill="#FFFFFF" d="M55.84,14.811H23.39v-4.724H10.118v4.724H5v9.9h5.118v30.146H5.056v9h29.188v-9H23.39V24.71h12.2v5.4h6.301
		v4.646c-1.533,0.45-2.587,1.855-2.588,3.453c0,0.847,0.299,1.666,0.844,2.313c-2.549,1.051-4.215,3.534-4.219,6.291
		c0.004,3.757,3.049,6.802,6.805,6.806c3.756-0.007,6.797-3.051,6.801-6.806v-0.899h-1.801v0.899
		c-0.002,2.764-2.242,5.004-5.006,5.006c-2.763-0.003-5.002-2.242-5.004-5.006c0.005-2.761,2.243-4.997,5.004-5h0.9v-0.074
		c1.671-0.347,2.869-1.818,2.869-3.524c-0.001-1.684-1.169-3.143-2.813-3.511v-4.589h6.748v-5.399h5.4L55.84,14.811z M44.705,38.211
		c0,0.994-0.807,1.8-1.8,1.8c-0.994,0-1.8-0.806-1.8-1.8s0.806-1.8,1.8-1.8l0,0c0.992,0,1.798,0.804,1.8,1.796V38.211z
		 M20.993,22.684l-9.076,9.076V13.608L20.993,22.684z M11.917,35.205l9.076,9.075l-9.076,9.076V35.205z M12.74,33.482l8.85-8.851
		v17.701L12.74,33.482z M21.59,20.736l-8.85-8.851h8.85V20.736z M6.799,22.909v-6.3h3.319v6.3H6.799z M32.445,56.653v5.399H6.856
		v-5.399H32.445L32.445,56.653z M12.965,54.853l8.625-8.625v8.625H12.965z M48.643,28.307H37.395v-3.6h11.248V28.307z
		 M54.042,22.907H23.39v-6.3h30.651L54.042,22.907z"/>
</g>
<g>
	<path fill="#FFFFFF" d="M19.584,74.072h4.308c0.336,0,0.578,0.092,0.727,0.275c0.147,0.186,0.222,0.441,0.222,0.77
		c0,0.287-0.036,0.563-0.107,0.828c-0.072,0.264-0.16,0.516-0.265,0.756h1.956v-2.797h1.729v6.984h-1.729V78.02h-2.027v-1.176
		c-0.377,0.713-0.933,1.35-1.669,1.908c-0.736,0.561-1.552,1.045-2.448,1.453l-0.744-1.248c0.4-0.217,0.792-0.441,1.176-0.672
		c0.384-0.232,0.732-0.48,1.044-0.744c0.313-0.256,0.58-0.531,0.804-0.822c0.225-0.293,0.376-0.602,0.456-0.93
		c0-0.033,0.004-0.066,0.013-0.104c0.008-0.035,0.012-0.064,0.012-0.09c0-0.063-0.021-0.109-0.06-0.137
		c-0.041-0.029-0.108-0.043-0.204-0.043h-3.192V74.072z M22.296,84.355c-0.44,0-0.782-0.104-1.026-0.311
		c-0.244-0.209-0.366-0.529-0.366-0.961V80.6h1.74v2.064c0,0.121,0.03,0.211,0.091,0.27c0.06,0.061,0.153,0.09,0.281,0.09h2.688
		c0.464,0,0.896-0.037,1.296-0.113s0.804-0.189,1.212-0.342l0.36,1.283c-0.416,0.145-0.853,0.266-1.309,0.361
		s-0.96,0.143-1.512,0.143H22.296z"/>
	<path fill="#FFFFFF" d="M34.561,73.701c0.127,0.256,0.217,0.473,0.264,0.652c0.049,0.182,0.072,0.379,0.072,0.596
		c0,0.168-0.008,0.326-0.023,0.473c-0.018,0.148-0.037,0.295-0.061,0.439c0.225,0.047,0.438,0.119,0.643,0.215
		c0.203,0.096,0.377,0.252,0.521,0.469c0.191,0.287,0.395,0.607,0.605,0.959c0.213,0.354,0.406,0.676,0.582,0.973l-1.223,0.791
		c-0.168-0.271-0.318-0.527-0.451-0.768c-0.131-0.24-0.258-0.451-0.377-0.635c-0.121-0.193-0.242-0.354-0.367-0.48
		c-0.123-0.129-0.258-0.225-0.402-0.289c-0.287,0.514-0.668,0.957-1.139,1.332c-0.473,0.377-0.992,0.705-1.561,0.984l-0.793-1.225
		c0.77-0.432,1.346-0.875,1.729-1.332c0.385-0.455,0.576-1.055,0.576-1.799c0-0.16-0.016-0.309-0.047-0.443
		c-0.033-0.137-0.084-0.27-0.156-0.396L34.561,73.701z M40.189,78.008c0,0.377-0.074,0.705-0.223,0.984
		c-0.148,0.281-0.334,0.484-0.559,0.611c0.264,0.064,0.459,0.182,0.582,0.35c0.125,0.168,0.186,0.367,0.186,0.6
		c0,0.039-0.002,0.076-0.006,0.107c-0.004,0.033-0.006,0.064-0.006,0.096l-0.18,1.404c-0.023,0.152-0.078,0.262-0.162,0.33
		s-0.197,0.102-0.342,0.102h-4.645v0.613h3.336c0.145,0,0.289,0.002,0.432,0.006c0.145,0.004,0.297-0.002,0.457-0.018
		c0.152-0.01,0.313-0.027,0.48-0.055c0.168-0.029,0.348-0.07,0.539-0.127l0.301,1.152c-0.457,0.152-0.852,0.242-1.188,0.27
		c-0.336,0.029-0.66,0.043-0.973,0.043h-4.092c-0.385,0-0.654-0.074-0.811-0.223s-0.234-0.406-0.234-0.773v-2.053h5.365v-0.6h-5.365
		v-1.271h4.908c0.176-0.137,0.297-0.34,0.359-0.611c0.064-0.273,0.098-0.545,0.098-0.816v-1.176h-1.896v-1.357h1.896v-1.691h1.74
		V78.008z"/>
</g>
</svg>
