<?xml version="1.0" encoding="utf-8"?>
<!-- Generator: Adobe Illustrator 16.0.0, SVG Export Plug-In . SVG Version: 6.00 Build 0)  -->
<!DOCTYPE svg PUBLIC "-//W3C//DTD SVG 1.1//EN" "http://www.w3.org/Graphics/SVG/1.1/DTD/svg11.dtd">
<svg version="1.1" id="Layer_1" xmlns="http://www.w3.org/2000/svg" xmlns:xlink="http://www.w3.org/1999/xlink" x="0px" y="0px"
	 width="100px" height="100px" viewBox="0 0 100 100" enable-background="new 0 0 100 100" xml:space="preserve">
<g id="그룹_4951" transform="translate(226.133 1569.801)">
	<path id="패스_717" fill="#FFFFFF" d="M-201.5-1505.721h9v-18h-9V-1505.721z M-199.7-1521.922h5.4v14.401h-5.4V-1521.922z"/>
	<path id="패스_718" fill="#FFFFFF" d="M-173.6-1505.721h9v-53.993h-9V-1505.721z M-171.8-1557.913h5.399v50.394h-5.399V-1557.913
		z"/>
	<path id="패스_719" fill="#FFFFFF" d="M-159.654-1544.413v38.7h9v-38.7H-159.654z M-152.453-1507.513h-5.4v-35.101h5.4V-1507.513
		z"/>
	<path id="패스_720" fill="#FFFFFF" d="M-187.549-1505.721h9v-30.601h-9V-1505.721z M-185.749-1534.522h5.4v27.001h-5.4V-1534.522
		z"/>
	<path id="패스_721" fill="#FFFFFF" d="M-184.85-1551.621v1.8h3.677l-20.96,20.96l1.272,1.271l20.96-20.96v3.677h1.8v-6.749
		L-184.85-1551.621L-184.85-1551.621z"/>
</g>
<text transform="matrix(1 0 0 1 38 83.3008)" fill="#FFFFFF" font-family="'GyeonggiTitleV'" font-size="12">사업</text>
<path fill="#FFFFFF" d="M74.739,92.129"/>
</svg>
